<svg xmlns="http://www.w3.org/2000/svg" width="103" height="64" viewBox="0 0 103.2 63.5"><style>.a{fill:#c87137}.a,.b,.c,.d{stroke-width:.2}.b{fill:#d38d5f}.c{fill:#2b1100}.d{fill:#5aa02c}.e{fill:#502d16;stroke-width:.3}.g{fill:#a0892c;stroke-width:.2}</style><path class="a" d="M50.3 0h7.9v7.9h-7.9zm7.9 7.9h7.9v7.9h-7.9zm7.9 0H74v7.9h-7.9zm-15.8 0h7.9v7.9h-7.9z"/><path class="b" d="M58.2 15.9h7.9v7.9h-7.9z"/><path class="b" d="M66.1 15.9H74v7.9h-7.9zm-15.8 0h7.9v7.9h-7.9zm7.9 7.9h7.9v7.9h-7.9zm7.9 0H74v7.9h-7.9zm-15.8 0h7.9v7.9h-7.9z"/><path class="c" d="M58.2 31.8h7.9v7.9h-7.9z"/><path class="b" d="M66.1 31.8H74v7.9h-7.9zm-15.8 0h7.9v7.9h-7.9z"/><path class="c" d="M58.2 39.7h7.9v7.9h-7.9z"/><path class="b" d="M66.1 39.7H74v7.9h-7.9zm-15.8 0h7.9v7.9h-7.9z"/><path class="a" d="M74.1 15.9H82v7.9h-7.9zm-31.8 0h7.9v7.9h-7.9zm0-8h7.9v7.9h-7.9zm31.8 0H82v7.9h-7.9zM58.2 0h7.9v7.9h-7.9z"/><path class="a" d="M66.1 0H74v7.9h-7.9z"/><path class="d" d="M95.3 47.6h7.9v7.9h-7.9zm-8 0h7.9v7.9h-7.9z"/><path class="e" d="M10.6 37h10.6v10.6H10.6z"/><path class="e" d="M10.6 26.5h10.6v10.6H10.6z"/><path d="M10.6 15.9h10.6v10.6H10.6zm10.6 0h10.6v10.6H21.2zm0 10.6h10.6v10.6H21.2zM0 15.9h10.6v10.6H0zM10.6 5.3h10.6v10.6H10.6z" fill="#338000" stroke-width=".3"/><path class="g" d="M0 55.6h7.9v7.9H0zm15.9 0h7.9v7.9h-7.9zm7.9 0h7.9v7.9h-7.9zm8 0h7.9v7.9h-7.9zm15.8 0h7.9v7.9h-7.9zm15.9 0h7.9v7.9h-7.9zm-55.6 0h7.9v7.9H7.9zm31.8 0h7.9v7.9h-7.9zm15.9 0h7.9v7.9h-7.9z"/><path class="g" d="M63.5 55.6h7.9v7.9h-7.9zm7.9 0h7.9v7.9h-7.9z"/><path class="g" d="M71.4 55.6h7.9v7.9h-7.9zm8 0h7.9v7.9h-7.9z"/><path class="g" d="M79.4 55.6h7.9v7.9h-7.9z"/><path class="g" d="M87.3 55.6h7.9v7.9h-7.9z"/><path class="g" d="M87.3 55.6h7.9v7.9h-7.9zm8 0h7.9v7.9h-7.9z"/><path class="g" d="M95.3 55.6h7.9v7.9h-7.9z"/><path class="d" d="M79.4 47.6h7.9v7.9h-7.9zm-8 0h7.9v7.9h-7.9zm-7.9 0h7.9v7.9h-7.9zm-7.9 0h7.9v7.9h-7.9zm-8 0h7.9v7.9h-7.9zm-7.9 0h7.9v7.9h-7.9zm-8 0h7.9v7.9h-7.9zm-7.9 0h7.9v7.9h-7.9zm-7.9 0h7.9v7.9h-7.9zm-8 0h7.9v7.9H7.9zm-7.9 0h7.9v7.9H0z"/></svg>