<svg xmlns="http://www.w3.org/2000/svg" width="175" height="120"><style>.a{fill:#447821}.b{fill:#a0892c}.c{fill:#5aa02c}.d{fill:#502d16}</style><g fill="none"><path class="a" d="M79.4 23.8h31.7v7.9H79.4z"/><path class="b" d="M158.7 95.2h7.9v7.9h-7.9z"/><path class="b" d="M0 95.2h166.7v7.9H0z"/><path class="c" d="M7.9 87.3h150.8v7.9H7.9z"/><path class="b" d="M15.9 79.4h142.9v7.9H15.9z"/><path class="c" d="M15.9 71.4h134.9v7.9H15.9z"/><path class="d" d="M87.3 23.8h15.9v47.6H87.3z"/><path class="a" d="M79.4 7.9h31.7v7.9H79.4zm-8 8H119v7.9H71.4zM87.3 0h15.9v7.9H87.3z"/><path class="b" d="M166.7 111.1h7.9v7.9h-7.9z"/><path class="b" d="M0 111.1h174.6v7.9H0z"/><path class="c" d="M0 103.2h166.7v7.9H0z"/><path class="d" d="M62.2 55.6h15.9v15.9H62.2zm7.9-8H78v7.9h-7.9zm54.3 0h15.9v23.8h-15.9zm-84.7 8h7.9v15.9h-7.9z"/><path class="a" d="M62.2 39.7h7.9v7.9h-7.9z"/><path class="a" d="M62.3 32h16.8v8H62.3zm0-7.9h11.8V32H62.3zM54 40h31.7v7.9H54z"/><path class="a" d="M62.2 39.7h7.9v15.9h-7.9zm-30.5 7.9h22.5v7.9H31.7zm84.7-7.9h31.7v7.9h-31.7zm8-7.9h15.9v7.9h-15.9zm0-8h7.9v7.9h-7.9z"/></g></svg>