<svg xmlns="http://www.w3.org/2000/svg" width="175" height="120" viewBox="0 0 175 120"><style>.a{fill:#447821;}.b{fill:#A0892C;}.c{fill:#5AA02C;}.d{fill:#502D16;}</style><title>  Group</title><desc>  Created with Sketch.</desc><g fill="none"><rect x="79.4" y="23.8" width="31.7" height="7.9" class="a"/><rect x="158.7" y="95.2" width="7.9" height="7.9" class="b"/><rect y="95.2" width="166.7" height="7.9" class="b"/><rect x="7.9" y="87.3" width="150.8" height="7.9" class="c"/><rect x="15.9" y="79.4" width="142.9" height="7.9" class="b"/><rect x="15.9" y="71.4" width="134.9" height="7.9" class="c"/><rect x="87.3" y="23.8" width="15.9" height="47.6" class="d"/><rect x="79.4" y="7.9" width="31.7" height="7.9" class="a"/><rect x="71.4" y="15.9" width="47.6" height="7.9" class="a"/><rect x="87.3" width="15.9" height="7.9" class="a"/><rect x="166.7" y="111.1" width="7.9" height="7.9" class="b"/><rect y="111.1" width="174.6" height="7.9" class="b"/><rect y="103.2" width="166.7" height="7.9" class="c"/><rect x="62.2" y="55.6" width="15.9" height="15.9" class="d"/><rect x="70.1" y="47.6" width="7.9" height="7.9" class="d"/><rect x="124.4" y="47.6" width="15.9" height="23.8" class="d"/><rect x="39.7" y="55.6" width="7.9" height="15.9" class="d"/><rect x="62.2" y="39.7" width="7.9" height="7.9" class="a"/><rect x="62.3" y="32" width="16.8" height="8" class="a"/><rect x="62.3" y="24.1" width="11.8" height="7.9" class="a"/><rect x="54" y="40" width="31.7" height="7.9" class="a"/><rect x="62.2" y="39.7" width="7.9" height="15.9" class="a"/><rect x="31.7" y="47.6" width="22.5" height="7.9" class="a"/><rect x="116.4" y="39.7" width="31.7" height="7.9" class="a"/><rect x="124.4" y="31.8" width="15.9" height="7.9" class="a"/><rect x="124.4" y="23.8" width="7.9" height="7.9" class="a"/></g></svg>