<svg xmlns="http://www.w3.org/2000/svg" width="103" height="64" viewBox="0 0 103.2 63.5"><style>.a{fill:#c87137;stroke-width:0.2;}.b{fill:#d38d5f;stroke-width:0.2;}.c{fill:#2b1100;stroke-width:0.2;}.d{fill:#5aa02c;stroke-width:0.2;}.e{fill:#502d16;stroke-width:0.3;}.f{fill:#338000;stroke-width:0.3;}.g{fill:#a0892c;stroke-width:0.2;}</style><rect x="50.3" height="7.9" width="7.9" class="a"/><rect width="7.9" height="7.9" x="58.2" y="7.9" class="a"/><rect y="7.9" x="66.1" height="7.9" width="7.9" class="a"/><rect width="7.9" height="7.9" x="50.3" y="7.9" class="a"/><rect y="15.9" x="58.2" height="7.9" width="7.9" class="b"/><rect width="7.9" height="7.9" x="66.1" y="15.9" class="b"/><rect y="15.9" x="50.3" height="7.9" width="7.9" class="b"/><rect width="7.9" height="7.9" x="58.2" y="23.8" class="b"/><rect y="23.8" x="66.1" height="7.9" width="7.9" class="b"/><rect width="7.9" height="7.9" x="50.3" y="23.8" class="b"/><rect y="31.8" x="58.2" height="7.9" width="7.9" class="c"/><rect width="7.9" height="7.9" x="66.1" y="31.8" class="b"/><rect y="31.8" x="50.3" height="7.9" width="7.9" class="b"/><rect width="7.9" height="7.9" x="58.2" y="39.7" class="c"/><rect y="39.7" x="66.1" height="7.9" width="7.9" class="b"/><rect width="7.9" height="7.9" x="50.3" y="39.7" class="b"/><rect width="7.9" height="7.9" x="74.1" y="15.9" class="a"/><rect y="15.9" x="42.3" height="7.9" width="7.9" class="a"/><rect width="7.9" height="7.9" x="42.3" y="7.9" class="a"/><rect width="7.9" height="7.9" x="74.1" y="7.9" class="a"/><rect width="7.9" height="7.9" x="58.2" class="a"/><rect x="66.1" height="7.9" width="7.9" class="a"/><rect width="7.9" height="7.9" x="95.3" y="47.6" class="d"/><rect y="47.6" x="87.3" height="7.9" width="7.9" class="d"/><rect width="10.6" height="10.6" x="10.6" y="37" class="e"/><rect y="26.5" x="10.6" height="10.6" width="10.6" class="e"/><rect width="10.6" height="10.6" x="10.6" y="15.9" class="f"/><rect y="15.9" x="21.2" height="10.6" width="10.6" class="f"/><rect width="10.6" height="10.6" x="21.2" y="26.5" class="f"/><rect y="15.9" height="10.6" width="10.6" class="f"/><rect width="10.6" height="10.6" x="10.6" y="5.3" class="f"/><rect y="55.6" height="7.9" width="7.9" class="g"/><rect y="55.6" x="15.9" height="7.9" width="7.9" class="g"/><rect width="7.9" height="7.9" x="23.8" y="55.6" class="g"/><rect y="55.6" x="31.8" height="7.9" width="7.9" class="g"/><rect width="7.9" height="7.9" x="47.6" y="55.6" class="g"/><rect y="55.6" x="63.5" height="7.9" width="7.9" class="g"/><rect width="7.9" height="7.9" x="7.9" y="55.6" class="g"/><rect y="55.6" x="39.7" height="7.9" width="7.9" class="g"/><rect y="55.6" x="55.6" height="7.9" width="7.9" class="g"/><rect width="7.9" height="7.9" x="63.5" y="55.6" class="g"/><rect width="7.9" height="7.9" x="71.4" y="55.6" class="g"/><rect y="55.6" x="71.4" height="7.9" width="7.9" class="g"/><rect y="55.6" x="79.4" height="7.9" width="7.9" class="g"/><rect width="7.9" height="7.9" x="79.4" y="55.6" class="g"/><rect y="55.6" x="87.3" height="7.9" width="7.9" class="g"/><rect width="7.9" height="7.9" x="87.3" y="55.6" class="g"/><rect width="7.9" height="7.9" x="95.3" y="55.6" class="g"/><rect y="55.6" x="95.3" height="7.9" width="7.9" class="g"/><rect y="47.6" x="79.4" height="7.9" width="7.9" class="d"/><rect width="7.9" height="7.9" x="71.4" y="47.6" class="d"/><rect y="47.6" x="63.5" height="7.9" width="7.9" class="d"/><rect width="7.9" height="7.9" x="55.6" y="47.6" class="d"/><rect width="7.9" height="7.9" x="47.6" y="47.6" class="d"/><rect y="47.6" x="39.7" height="7.9" width="7.9" class="d"/><rect y="47.6" x="31.7" height="7.9" width="7.9" class="d"/><rect width="7.9" height="7.9" x="23.8" y="47.6" class="d"/><rect width="7.9" height="7.9" x="15.9" y="47.6" class="d"/><rect width="7.9" height="7.9" x="7.9" y="47.6" class="d"/><rect width="7.9" height="7.9" y="47.6" class="d"/></svg>
